<?xml version="1.0" encoding="utf-8"?>
<!-- Generator: Adobe Illustrator 16.0.3, SVG Export Plug-In . SVG Version: 6.00 Build 0)  -->
<!DOCTYPE svg PUBLIC "-//W3C//DTD SVG 1.1//EN" "http://www.w3.org/Graphics/SVG/1.1/DTD/svg11.dtd">
<svg version="1.1" id="圖層_1" xmlns="http://www.w3.org/2000/svg" xmlns:xlink="http://www.w3.org/1999/xlink" x="0px" y="0px"
	 width="150px" height="150px" viewBox="0 0 150 150" enable-background="new 0 0 150 150" xml:space="preserve">
<g id="圖層_1_1_">
	
		<rect x="22.375" y="22.541" fill="none" stroke="#B2B2B2" stroke-width="0.5" stroke-miterlimit="10" width="104.917" height="104.918"/>
</g>
<g id="圖層_2">
	
		<line fill="none" stroke="#B2B2B2" stroke-width="0.5" stroke-miterlimit="10" x1="22.375" y1="127.459" x2="127.291" y2="22.541"/>
	
		<line fill="none" stroke="#B2B2B2" stroke-width="0.5" stroke-miterlimit="10" x1="127.291" y1="127.459" x2="22.375" y2="22.541"/>
</g>
<g>
	<path fill="#ADADAD" d="M72.112,46.549h-2.733v2.496h-0.826v-2.496h-2.83v-0.853h2.83v-1.582H66.32v-6.908h2.232v-1.512H65.96
		v-0.853h2.593v-1.494h0.826v1.494h2.716v0.853h-2.716v1.512h2.197v6.908h-2.197v1.582h2.733V46.549z M68.553,40.16v-2.092h-1.389
		v2.092H68.553z M68.553,43.253v-2.232h-1.389v2.232H68.553z M70.75,40.177v-2.109h-1.371v2.109H70.75z M70.75,43.253v-2.232h-1.371
		v2.232H70.75z M81.367,37.4l-0.563,0.721c-1.887-1.195-3.24-2.358-4.061-3.489c-1.008,1.236-2.414,2.429-4.219,3.577l-0.571-0.791
		c2.115-1.23,3.65-2.622,4.605-4.175l0.844,0.343c-0.012,0.1-0.064,0.208-0.158,0.325C78.124,35.124,79.498,36.287,81.367,37.4z
		 M80.664,47.929c0,0.732-0.425,1.099-1.274,1.099c-0.146,0-0.299-0.012-0.457-0.035l-0.299-0.914
		c0.111,0.012,0.363,0.018,0.756,0.018c0.252,0,0.378-0.114,0.378-0.343v-3.296h-1.477v3.999h-0.923v-3.999h-1.459v3.999H75.03
		v-3.999h-1.441v4.588h-0.861v-9.088h7.937V47.929z M75.03,43.596v-2.76h-1.424v2.76H75.03z M79.223,38.446h-5.142v-0.914h5.142
		V38.446z M77.368,43.596v-2.76h-1.459v2.76H77.368z M79.768,43.596v-2.76h-1.477v2.76H79.768z"/>
</g>
<g>
	<path fill="#ADADAD" d="M40.779,79.216h-2.733v2.496h-0.826v-2.496h-2.83v-0.853h2.83v-1.582h-2.232v-6.908h2.232v-1.512h-2.593
		v-0.853h2.593v-1.494h0.826v1.494h2.716v0.853h-2.716v1.512h2.197v6.908h-2.197v1.582h2.733V79.216z M37.219,72.826v-2.092h-1.389
		v2.092H37.219z M37.219,75.92v-2.232h-1.389v2.232H37.219z M39.417,72.844v-2.109h-1.371v2.109H39.417z M39.417,75.92v-2.232
		h-1.371v2.232H39.417z M50.034,70.066l-0.563,0.721c-1.887-1.195-3.24-2.358-4.061-3.489c-1.008,1.236-2.414,2.429-4.219,3.577
		l-0.571-0.791c2.115-1.23,3.65-2.622,4.605-4.175l0.844,0.343c-0.012,0.1-0.064,0.208-0.158,0.325
		C46.791,67.79,48.165,68.953,50.034,70.066z M49.331,80.596c0,0.732-0.425,1.099-1.274,1.099c-0.146,0-0.299-0.012-0.457-0.035
		L47.3,80.745c0.111,0.012,0.363,0.018,0.756,0.018c0.252,0,0.378-0.114,0.378-0.343v-3.296h-1.477v3.999h-0.923v-3.999h-1.459
		v3.999h-0.879v-3.999h-1.441v4.588h-0.861v-9.088h7.937V80.596z M43.697,76.263v-2.76h-1.424v2.76H43.697z M47.889,71.112h-5.142
		v-0.914h5.142V71.112z M46.035,76.263v-2.76h-1.459v2.76H46.035z M48.434,76.263v-2.76h-1.477v2.76H48.434z"/>
</g>
<g>
	<path fill="#ADADAD" d="M70.319,101.4h-1.608v3.155c0.305-0.182,0.738-0.483,1.301-0.905l0.141,1.011
		c-0.352,0.281-0.832,0.624-1.441,1.028v5.959c0,0.404-0.117,0.732-0.352,0.984s-0.647,0.378-1.239,0.378h-0.888l-0.308-0.932h1.38
		c0.34,0,0.51-0.155,0.51-0.466v-5.388c-0.375,0.229-1.005,0.589-1.89,1.081L65.6,106.41c0.504-0.229,1.242-0.645,2.215-1.248V101.4
		H65.67v-0.879h2.145v-3.208h0.896v3.208h1.608V101.4z M81.385,105.312l-0.466,0.809c-1.295-0.855-2.833-1.594-4.614-2.215v2.32
		h3.691v6.838h-0.949v-0.791h-6.319v0.791h-0.94v-6.838h3.604v-3.041c-1.365,1.277-2.842,2.268-4.43,2.971l-0.536-0.791
		c1.828-0.773,3.243-1.673,4.245-2.698h-3.779v-0.905h4.5v-2.839c-1.037,0.059-2.338,0.088-3.902,0.088l-0.237-0.94
		c2.262,0.018,4.021-0.023,5.277-0.123c1.258-0.1,2.463-0.328,3.617-0.686l0.431,0.826c-1.143,0.316-2.566,0.568-4.271,0.756v2.918
		h4.904v0.905h-4.904v0.325C78.426,103.765,80.119,104.538,81.385,105.312z M73.967,100.987l-0.826,0.448
		c-0.287-0.504-0.683-1.02-1.187-1.547l0.773-0.413C73.243,99.921,73.656,100.425,73.967,100.987z M75.391,108.748v-1.635h-2.663
		v1.635H75.391z M75.391,111.358v-1.749h-2.663v1.749H75.391z M79.047,108.748v-1.635h-2.742v1.635H79.047z M79.047,111.358v-1.749
		h-2.742v1.749H79.047z M80.031,99.528c-0.387,0.627-0.896,1.245-1.529,1.854l-0.773-0.589c0.609-0.568,1.131-1.151,1.564-1.749
		L80.031,99.528z"/>
</g>
<g>
	<path fill="#ADADAD" d="M102.319,70.066h-1.608v3.155c0.305-0.182,0.738-0.483,1.301-0.905l0.141,1.011
		c-0.352,0.281-0.832,0.624-1.441,1.028v5.959c0,0.404-0.117,0.732-0.352,0.984s-0.647,0.378-1.239,0.378h-0.888l-0.308-0.932h1.38
		c0.34,0,0.51-0.155,0.51-0.466v-5.388c-0.375,0.229-1.005,0.589-1.89,1.081L97.6,75.076c0.504-0.229,1.242-0.645,2.215-1.248
		v-3.762H97.67v-0.879h2.145v-3.208h0.896v3.208h1.608V70.066z M113.385,73.978l-0.466,0.809c-1.295-0.855-2.833-1.594-4.614-2.215
		v2.32h3.691v6.838h-0.949v-0.791h-6.319v0.791h-0.94v-6.838h3.604v-3.041c-1.365,1.277-2.842,2.268-4.43,2.971l-0.536-0.791
		c1.828-0.773,3.243-1.673,4.245-2.698h-3.779v-0.905h4.5v-2.839c-1.037,0.059-2.338,0.088-3.902,0.088l-0.237-0.94
		c2.262,0.018,4.021-0.023,5.277-0.123c1.258-0.1,2.463-0.328,3.617-0.686l0.431,0.826c-1.143,0.316-2.566,0.568-4.271,0.756v2.918
		h4.904v0.905h-4.904v0.325C110.426,72.431,112.119,73.204,113.385,73.978z M105.967,69.653l-0.826,0.448
		c-0.287-0.504-0.683-1.02-1.187-1.547l0.773-0.413C105.243,68.587,105.656,69.091,105.967,69.653z M107.391,77.414v-1.635h-2.663
		v1.635H107.391z M107.391,80.024v-1.749h-2.663v1.749H107.391z M111.047,77.414v-1.635h-2.742v1.635H111.047z M111.047,80.024
		v-1.749h-2.742v1.749H111.047z M112.031,68.194c-0.387,0.627-0.896,1.245-1.529,1.854l-0.773-0.589
		c0.609-0.568,1.131-1.151,1.564-1.749L112.031,68.194z"/>
</g>
</svg>
